<svg xmlns="http://www.w3.org/2000/svg" version="1.1" xmlns:xlink="http://www.w3.org/1999/xlink" xmlns:svgjs="http://svgjs.com/svgjs" width="1920" height="1080" preserveAspectRatio="none" viewBox="0 0 1920 1080"><g mask="url(&quot;#SvgjsMask1053&quot;)" fill="none"><path d="M-136.97 -7.03 a129.94 129.94 0 1 0 259.88 0 a129.94 129.94 0 1 0 -259.88 0z" fill="rgba(0, 0, 0, 0.17)" class="triangle-float1"></path><path d="M-173.93 29.93 a203.86 203.86 0 1 0 407.72 0 a203.86 203.86 0 1 0 -407.72 0z" fill="rgba(0, 0, 0, 0.17)" class="triangle-float2"></path><path d="M-182.73 38.73 a221.46 221.46 0 1 0 442.92 0 a221.46 221.46 0 1 0 -442.92 0z" fill="rgba(0, 0, 0, 0.17)" class="triangle-float1"></path><path d="M1873.25,394.552C1954.264,400.295,2035.321,356.449,2071.833,283.902C2105.646,216.717,2073.46,140.428,2033.082,76.971C1996.388,19.304,1941.6,-28.751,1873.25,-28.183C1805.719,-27.621,1750.072,20.184,1717.957,79.592C1687.506,135.922,1689.783,201.393,1718.1,258.825C1750.668,324.878,1799.788,389.344,1873.25,394.552" fill="rgba(0, 0, 0, 0.17)" class="triangle-float3"></path><path d="M1723.02,86.135C1748.563,84.83,1773.903,77.851,1788.276,56.696C1804.656,32.587,1812.412,1.064,1798.054,-24.301C1783.535,-49.951,1752.478,-59.554,1723.02,-58.592C1695.352,-57.688,1670.872,-43.023,1656.023,-19.66C1639.852,5.782,1628.969,38.54,1645.097,64.009C1660.58,88.459,1694.118,87.611,1723.02,86.135" fill="rgba(0, 0, 0, 0.17)" class="triangle-float1"></path><path d="M1807.585,235.737C1860.613,237.739,1917.495,228.201,1946.804,183.963C1978.823,135.636,1977.889,72.197,1949.38,21.719C1920.401,-29.591,1866.506,-61.632,1807.585,-62.54C1747.031,-63.473,1685.788,-36.587,1658.013,17.229C1631.919,67.787,1653.316,127.149,1685.453,174.098C1713.061,214.43,1758.744,233.893,1807.585,235.737" fill="rgba(0, 0, 0, 0.17)" class="triangle-float1"></path><path d="M34.787404246355976 807.5618176243319L2.1318942272470736 1176.7631416541785 298.1206225034498 1044.9804692976193z" fill="rgba(0, 0, 0, 0.17)" class="triangle-float1"></path><path d="M287.9725851281504 968.858566841289L-39.119501261231335 794.5405613988183-33.4649215755515 1118.4912146294891z" fill="rgba(0, 0, 0, 0.17)" class="triangle-float2"></path><path d="M58.455,1037.146C99.455,1037.13,138.987,1016.247,157.9,979.87C175.626,945.777,163.508,906.165,143.664,873.26C124.616,841.676,95.276,817.115,58.455,814.975C17.619,812.602,-24.686,827.229,-45.825,862.249C-67.573,898.278,-62.678,943.802,-41.126,979.949C-20.115,1015.189,17.427,1037.162,58.455,1037.146" fill="rgba(0, 0, 0, 0.17)" class="triangle-float1"></path><path d="M1770.687,1063.972C1814.348,1063.053,1841.65,1022.084,1863.235,984.12C1884.476,946.761,1905.183,902.658,1883.504,865.552C1861.941,828.644,1813.399,824.018,1770.687,825.71C1731.593,827.258,1692.798,840.556,1672.355,873.915C1651.026,908.72,1652.374,951.91,1671.132,988.165C1691.675,1027.871,1725.992,1064.913,1770.687,1063.972" fill="rgba(0, 0, 0, 0.17)" class="triangle-float3"></path><path d="M1812 792L1632 1116 1956 1116z" fill="rgba(0, 0, 0, 0.17)" class="triangle-float3"></path><path d="M1618.5606034718762 959.1469898142395L1685.308274256865 1164.5751973339927 1960.0767501440002 961.739587396633z" fill="rgba(0, 0, 0, 0.17)" class="triangle-float2"></path></g><defs><mask id="SvgjsMask1053"><rect width="1920" height="1080" fill="#ffffff"></rect></mask><style>
            @keyframes float1 {
                0%{transform: translate(0, 0)}
                50%{transform: translate(-10px, 0)}
                100%{transform: translate(0, 0)}
            }

            .triangle-float1 {
                animation: float1 5s infinite;
            }

            @keyframes float2 {
                0%{transform: translate(0, 0)}
                50%{transform: translate(-5px, -5px)}
                100%{transform: translate(0, 0)}
            }

            .triangle-float2 {
                animation: float2 4s infinite;
            }

            @keyframes float3 {
                0%{transform: translate(0, 0)}
                50%{transform: translate(0, -10px)}
                100%{transform: translate(0, 0)}
            }

            .triangle-float3 {
                animation: float3 6s infinite;
            }
        </style></defs></svg>