<svg xmlns="http://www.w3.org/2000/svg" version="1.1" xmlns:xlink="http://www.w3.org/1999/xlink" xmlns:svgjs="http://svgjs.com/svgjs" width="1440" height="560" preserveAspectRatio="none" viewBox="0 0 1440 560"><g mask="url(&quot;#SvgjsMask1091&quot;)" fill="none"><path d="M1512 560L0 560 L0 424.15Q70.52 374.67, 120 445.19Q131.56 384.75, 192 396.31Q258.42 342.73, 312 409.15Q357.31 382.45, 384 427.76Q452.82 376.58, 504 445.4Q514.4 383.8, 576 394.2Q618.22 364.42, 648 406.65Q728.21 366.86, 768 447.07Q819.36 378.42, 888 429.78Q940.96 362.74, 1008 415.69Q1053.43 341.12, 1128 386.55Q1188.43 374.99, 1200 435.42Q1248.78 364.2, 1320 412.98Q1396.43 369.42, 1440 445.85Q1453.99 387.84, 1512 401.82z" fill="#182f5d"></path><path d="M1488 560L0 560 L0 434.27Q59.7 421.97, 72 481.67Q95.47 433.14, 144 456.61Q166.74 407.35, 216 430.09Q259.3 401.38, 288 444.68Q344.03 428.71, 360 484.73Q381.88 434.61, 432 456.49Q485.89 390.38, 552 444.27Q606.86 427.13, 624 481.99Q672.98 410.97, 744 459.94Q796.04 391.98, 864 444.02Q915.21 423.23, 936 474.44Q1001.52 419.96, 1056 485.47Q1103.77 413.24, 1176 461.01Q1242.07 407.08, 1296 473.15Q1340.18 445.33, 1368 489.52Q1404.99 406.51, 1488 443.5z" fill="#25467d"></path><path d="M1536 560L0 560 L0 533.31Q29.6 490.91, 72 520.51Q124.16 452.67, 192 504.83Q265.75 458.58, 312 532.32Q346.45 446.77, 432 481.22Q506.63 435.85, 552 510.48Q597.57 484.05, 624 529.61Q658.56 444.17, 744 478.73Q812.03 426.76, 864 494.8Q941.67 452.47, 984 530.14Q1018.31 444.44, 1104 478.75Q1176.42 431.17, 1224 503.59Q1271 478.59, 1296 525.59Q1350.88 460.48, 1416 515.36Q1454.99 434.35, 1536 473.33z" fill="#356cb1"></path><path d="M1512 560L0 560 L0 535.66Q43.41 507.07, 72 550.48Q140.65 499.13, 192 567.79Q212.41 516.2, 264 536.61Q306.81 507.42, 336 550.23Q380.64 474.88, 456 519.52Q513.09 504.61, 528 561.69Q556.09 517.78, 600 545.87Q629.14 503.01, 672 532.16Q748.74 488.89, 792 565.63Q844 497.63, 912 549.62Q941.97 507.59, 984 537.55Q1036.37 517.92, 1056 570.29Q1085.56 527.85, 1128 557.4Q1182.07 491.47, 1248 545.55Q1296.14 521.69, 1320 569.83Q1338.67 516.5, 1392 535.18Q1463.89 487.07, 1512 558.96z" fill="white"></path></g><defs><mask id="SvgjsMask1091"><rect width="1440" height="560" fill="#ffffff"></rect></mask></defs></svg>