<svg xmlns="http://www.w3.org/2000/svg" version="1.1" xmlns:xlink="http://www.w3.org/1999/xlink" xmlns:svgjs="http://svgjs.com/svgjs" width="1440" height="560" preserveAspectRatio="none" viewBox="0 0 1440 560"><g mask="url(&quot;#SvgjsMask1018&quot;)" fill="none"><path d="M-76.97 378.48L-76.97 378.48" stroke="rgba(2, 138, 234, 1)" stroke-width="1.5"></path><path d="M-76.97 378.48L37.85 365.07" stroke="rgba(2, 138, 234, 1)" stroke-width="1.5"></path><path d="M-76.97 378.48L-81.36 528.83" stroke="rgba(2, 138, 234, 1)" stroke-width="1.5"></path><path d="M-76.97 378.48L74.43 527.29" stroke="rgba(2, 138, 234, 1)" stroke-width="1.5"></path><path d="M-76.97 378.48L194.55 403.01" stroke="rgba(2, 138, 234, 1)" stroke-width="1.5"></path><path d="M-81.36 528.83L-81.36 528.83" stroke="rgba(2, 138, 234, 1)" stroke-width="1.5"></path><path d="M-81.36 528.83L74.43 527.29" stroke="rgba(2, 138, 234, 1)" stroke-width="1.5"></path><path d="M-81.36 528.83L-108.26 686.91" stroke="rgba(2, 138, 234, 1)" stroke-width="1.5"></path><path d="M-108.26 686.91L-108.26 686.91" stroke="rgba(2, 138, 234, 1)" stroke-width="1.5"></path><path d="M-108.26 686.91L61.33 677.95" stroke="rgba(2, 138, 234, 1)" stroke-width="1.5"></path><path d="M-108.26 686.91L74.43 527.29" stroke="rgba(2, 138, 234, 1)" stroke-width="1.5"></path><path d="M37.85 365.07L37.85 365.07" stroke="rgba(2, 138, 234, 1)" stroke-width="1.5"></path><path d="M37.85 365.07L194.55 403.01" stroke="rgba(2, 138, 234, 1)" stroke-width="1.5"></path><path d="M37.85 365.07L74.43 527.29" stroke="rgba(2, 138, 234, 1)" stroke-width="1.5"></path><path d="M37.85 365.07L-81.36 528.83" stroke="rgba(2, 138, 234, 1)" stroke-width="1.5"></path><path d="M37.85 365.07L223.96 539.31" stroke="rgba(2, 138, 234, 1)" stroke-width="1.5"></path><path d="M37.85 365.07L61.33 677.95" stroke="rgba(2, 138, 234, 1)" stroke-width="1.5"></path><path d="M74.43 527.29L74.43 527.29" stroke="rgba(2, 138, 234, 1)" stroke-width="1.5"></path><path d="M74.43 527.29L223.96 539.31" stroke="rgba(2, 138, 234, 1)" stroke-width="1.5"></path><path d="M74.43 527.29L61.33 677.95" stroke="rgba(2, 138, 234, 1)" stroke-width="1.5"></path><path d="M61.33 677.95L61.33 677.95" stroke="rgba(2, 138, 234, 1)" stroke-width="1.5"></path><path d="M61.33 677.95L255.2 691.27" stroke="rgba(2, 138, 234, 1)" stroke-width="1.5"></path><path d="M61.33 677.95L-81.36 528.83" stroke="rgba(2, 138, 234, 1)" stroke-width="1.5"></path><path d="M61.33 677.95L223.96 539.31" stroke="rgba(2, 138, 234, 1)" stroke-width="1.5"></path><path d="M61.33 677.95L194.55 403.01" stroke="rgba(2, 138, 234, 1)" stroke-width="1.5"></path><path d="M194.55 403.01L194.55 403.01" stroke="rgba(2, 138, 234, 1)" stroke-width="1.5"></path><path d="M194.55 403.01L223.96 539.31" stroke="rgba(2, 138, 234, 1)" stroke-width="1.5"></path><path d="M194.55 403.01L74.43 527.29" stroke="rgba(2, 138, 234, 1)" stroke-width="1.5"></path><path d="M223.96 539.31L223.96 539.31" stroke="rgba(2, 138, 234, 1)" stroke-width="1.5"></path><path d="M223.96 539.31L371.92 562.32" stroke="rgba(2, 138, 234, 1)" stroke-width="1.5"></path><path d="M255.2 691.27L255.2 691.27" stroke="rgba(2, 138, 234, 1)" stroke-width="1.5"></path><path d="M255.2 691.27L407.87 688" stroke="rgba(2, 138, 234, 1)" stroke-width="1.5"></path><path d="M255.2 691.27L223.96 539.31" stroke="rgba(2, 138, 234, 1)" stroke-width="1.5"></path><path d="M255.2 691.27L371.92 562.32" stroke="rgba(2, 138, 234, 1)" stroke-width="1.5"></path><path d="M255.2 691.27L74.43 527.29" stroke="rgba(2, 138, 234, 1)" stroke-width="1.5"></path><path d="M362.99 342.75L362.99 342.75" stroke="rgba(2, 138, 234, 1)" stroke-width="1.5"></path><path d="M362.99 342.75L516.53 354.04" stroke="rgba(2, 138, 234, 1)" stroke-width="1.5"></path><path d="M362.99 342.75L194.55 403.01" stroke="rgba(2, 138, 234, 1)" stroke-width="1.5"></path><path d="M362.99 342.75L371.92 562.32" stroke="rgba(2, 138, 234, 1)" stroke-width="1.5"></path><path d="M362.99 342.75L500.58 515.12" stroke="rgba(2, 138, 234, 1)" stroke-width="1.5"></path><path d="M371.92 562.32L371.92 562.32" stroke="rgba(2, 138, 234, 1)" stroke-width="1.5"></path><path d="M371.92 562.32L407.87 688" stroke="rgba(2, 138, 234, 1)" stroke-width="1.5"></path><path d="M371.92 562.32L500.58 515.12" stroke="rgba(2, 138, 234, 1)" stroke-width="1.5"></path><path d="M371.92 562.32L545.22 707.78" stroke="rgba(2, 138, 234, 1)" stroke-width="1.5"></path><path d="M407.87 688L407.87 688" stroke="rgba(2, 138, 234, 1)" stroke-width="1.5"></path><path d="M407.87 688L545.22 707.78" stroke="rgba(2, 138, 234, 1)" stroke-width="1.5"></path><path d="M407.87 688L500.58 515.12" stroke="rgba(2, 138, 234, 1)" stroke-width="1.5"></path><path d="M407.87 688L223.96 539.31" stroke="rgba(2, 138, 234, 1)" stroke-width="1.5"></path><path d="M516.53 354.04L516.53 354.04" stroke="rgba(2, 138, 234, 1)" stroke-width="1.5"></path><path d="M516.53 354.04L500.58 515.12" stroke="rgba(2, 138, 234, 1)" stroke-width="1.5"></path><path d="M516.53 354.04L679.58 344.58" stroke="rgba(2, 138, 234, 1)" stroke-width="1.5"></path><path d="M516.53 354.04L693.14 245.67" stroke="rgba(2, 138, 234, 1)" stroke-width="1.5"></path><path d="M500.58 515.12L500.58 515.12" stroke="rgba(2, 138, 234, 1)" stroke-width="1.5"></path><path d="M500.58 515.12L641.68 559.91" stroke="rgba(2, 138, 234, 1)" stroke-width="1.5"></path><path d="M500.58 515.12L545.22 707.78" stroke="rgba(2, 138, 234, 1)" stroke-width="1.5"></path><path d="M545.22 707.78L545.22 707.78" stroke="rgba(2, 138, 234, 1)" stroke-width="1.5"></path><path d="M545.22 707.78L681.07 651.18" stroke="rgba(2, 138, 234, 1)" stroke-width="1.5"></path><path d="M693.14 245.67L693.14 245.67" stroke="rgba(2, 138, 234, 1)" stroke-width="1.5"></path><path d="M693.14 245.67L679.58 344.58" stroke="rgba(2, 138, 234, 1)" stroke-width="1.5"></path><path d="M693.14 245.67L845.74 238.05" stroke="rgba(2, 138, 234, 1)" stroke-width="1.5"></path><path d="M679.58 344.58L679.58 344.58" stroke="rgba(2, 138, 234, 1)" stroke-width="1.5"></path><path d="M679.58 344.58L807.93 369.02" stroke="rgba(2, 138, 234, 1)" stroke-width="1.5"></path><path d="M679.58 344.58L845.74 238.05" stroke="rgba(2, 138, 234, 1)" stroke-width="1.5"></path><path d="M679.58 344.58L641.68 559.91" stroke="rgba(2, 138, 234, 1)" stroke-width="1.5"></path><path d="M679.58 344.58L804.12 550.6" stroke="rgba(2, 138, 234, 1)" stroke-width="1.5"></path><path d="M641.68 559.91L641.68 559.91" stroke="rgba(2, 138, 234, 1)" stroke-width="1.5"></path><path d="M641.68 559.91L681.07 651.18" stroke="rgba(2, 138, 234, 1)" stroke-width="1.5"></path><path d="M641.68 559.91L804.12 550.6" stroke="rgba(2, 138, 234, 1)" stroke-width="1.5"></path><path d="M641.68 559.91L545.22 707.78" stroke="rgba(2, 138, 234, 1)" stroke-width="1.5"></path><path d="M641.68 559.91L808 644.91" stroke="rgba(2, 138, 234, 1)" stroke-width="1.5"></path><path d="M681.07 651.18L681.07 651.18" stroke="rgba(2, 138, 234, 1)" stroke-width="1.5"></path><path d="M681.07 651.18L808 644.91" stroke="rgba(2, 138, 234, 1)" stroke-width="1.5"></path><path d="M845.74 238.05L845.74 238.05" stroke="rgba(2, 138, 234, 1)" stroke-width="1.5"></path><path d="M845.74 238.05L807.93 369.02" stroke="rgba(2, 138, 234, 1)" stroke-width="1.5"></path><path d="M807.93 369.02L807.93 369.02" stroke="rgba(2, 138, 234, 1)" stroke-width="1.5"></path><path d="M807.93 369.02L693.14 245.67" stroke="rgba(2, 138, 234, 1)" stroke-width="1.5"></path><path d="M804.12 550.6L804.12 550.6" stroke="rgba(2, 138, 234, 1)" stroke-width="1.5"></path><path d="M804.12 550.6L808 644.91" stroke="rgba(2, 138, 234, 1)" stroke-width="1.5"></path><path d="M804.12 550.6L681.07 651.18" stroke="rgba(2, 138, 234, 1)" stroke-width="1.5"></path><path d="M804.12 550.6L807.93 369.02" stroke="rgba(2, 138, 234, 1)" stroke-width="1.5"></path><path d="M804.12 550.6L995.05 505.09" stroke="rgba(2, 138, 234, 1)" stroke-width="1.5"></path><path d="M804.12 550.6L955.07 703.79" stroke="rgba(2, 138, 234, 1)" stroke-width="1.5"></path><path d="M808 644.91L808 644.91" stroke="rgba(2, 138, 234, 1)" stroke-width="1.5"></path><path d="M808 644.91L955.07 703.79" stroke="rgba(2, 138, 234, 1)" stroke-width="1.5"></path><path d="M808 644.91L995.05 505.09" stroke="rgba(2, 138, 234, 1)" stroke-width="1.5"></path><path d="M808 644.91L545.22 707.78" stroke="rgba(2, 138, 234, 1)" stroke-width="1.5"></path><path d="M988.04 80.69L988.04 80.69" stroke="rgba(2, 138, 234, 1)" stroke-width="1.5"></path><path d="M988.04 80.69L1002.87 215.47" stroke="rgba(2, 138, 234, 1)" stroke-width="1.5"></path><path d="M988.04 80.69L1149.12 86.53" stroke="rgba(2, 138, 234, 1)" stroke-width="1.5"></path><path d="M988.04 80.69L1117.64 206.53" stroke="rgba(2, 138, 234, 1)" stroke-width="1.5"></path><path d="M988.04 80.69L845.74 238.05" stroke="rgba(2, 138, 234, 1)" stroke-width="1.5"></path><path d="M988.04 80.69L1108.25 -105.6" stroke="rgba(2, 138, 234, 1)" stroke-width="1.5"></path><path d="M988.04 80.69L1238.63 -38.44" stroke="rgba(2, 138, 234, 1)" stroke-width="1.5"></path><path d="M1002.87 215.47L1002.87 215.47" stroke="rgba(2, 138, 234, 1)" stroke-width="1.5"></path><path d="M1002.87 215.47L1117.64 206.53" stroke="rgba(2, 138, 234, 1)" stroke-width="1.5"></path><path d="M1002.87 215.47L845.74 238.05" stroke="rgba(2, 138, 234, 1)" stroke-width="1.5"></path><path d="M1002.87 215.47L998.67 407.91" stroke="rgba(2, 138, 234, 1)" stroke-width="1.5"></path><path d="M1002.87 215.47L1149.12 86.53" stroke="rgba(2, 138, 234, 1)" stroke-width="1.5"></path><path d="M1002.87 215.47L807.93 369.02" stroke="rgba(2, 138, 234, 1)" stroke-width="1.5"></path><path d="M998.67 407.91L998.67 407.91" stroke="rgba(2, 138, 234, 1)" stroke-width="1.5"></path><path d="M998.67 407.91L995.05 505.09" stroke="rgba(2, 138, 234, 1)" stroke-width="1.5"></path><path d="M998.67 407.91L807.93 369.02" stroke="rgba(2, 138, 234, 1)" stroke-width="1.5"></path><path d="M998.67 407.91L845.74 238.05" stroke="rgba(2, 138, 234, 1)" stroke-width="1.5"></path><path d="M995.05 505.09L995.05 505.09" stroke="rgba(2, 138, 234, 1)" stroke-width="1.5"></path><path d="M995.05 505.09L955.07 703.79" stroke="rgba(2, 138, 234, 1)" stroke-width="1.5"></path><path d="M995.05 505.09L1152.59 639.09" stroke="rgba(2, 138, 234, 1)" stroke-width="1.5"></path><path d="M955.07 703.79L955.07 703.79" stroke="rgba(2, 138, 234, 1)" stroke-width="1.5"></path><path d="M955.07 703.79L1152.59 639.09" stroke="rgba(2, 138, 234, 1)" stroke-width="1.5"></path><path d="M955.07 703.79L681.07 651.18" stroke="rgba(2, 138, 234, 1)" stroke-width="1.5"></path><path d="M1108.25 -105.6L1108.25 -105.6" stroke="rgba(2, 138, 234, 1)" stroke-width="1.5"></path><path d="M1108.25 -105.6L1238.63 -38.44" stroke="rgba(2, 138, 234, 1)" stroke-width="1.5"></path><path d="M1108.25 -105.6L1149.12 86.53" stroke="rgba(2, 138, 234, 1)" stroke-width="1.5"></path><path d="M1108.25 -105.6L1308.63 90.65" stroke="rgba(2, 138, 234, 1)" stroke-width="1.5"></path><path d="M1108.25 -105.6L1401.12 -110.67" stroke="rgba(2, 138, 234, 1)" stroke-width="1.5"></path><path d="M1149.12 86.53L1149.12 86.53" stroke="rgba(2, 138, 234, 1)" stroke-width="1.5"></path><path d="M1149.12 86.53L1117.64 206.53" stroke="rgba(2, 138, 234, 1)" stroke-width="1.5"></path><path d="M1149.12 86.53L1238.63 -38.44" stroke="rgba(2, 138, 234, 1)" stroke-width="1.5"></path><path d="M1117.64 206.53L1117.64 206.53" stroke="rgba(2, 138, 234, 1)" stroke-width="1.5"></path><path d="M1152.59 639.09L1152.59 639.09" stroke="rgba(2, 138, 234, 1)" stroke-width="1.5"></path><path d="M1152.59 639.09L1256.59 649.23" stroke="rgba(2, 138, 234, 1)" stroke-width="1.5"></path><path d="M1152.59 639.09L1295.62 523.9" stroke="rgba(2, 138, 234, 1)" stroke-width="1.5"></path><path d="M1152.59 639.09L1391.57 539.27" stroke="rgba(2, 138, 234, 1)" stroke-width="1.5"></path><path d="M1152.59 639.09L1253.62 395.01" stroke="rgba(2, 138, 234, 1)" stroke-width="1.5"></path><path d="M1238.63 -38.44L1238.63 -38.44" stroke="rgba(2, 138, 234, 1)" stroke-width="1.5"></path><path d="M1238.63 -38.44L1308.63 90.65" stroke="rgba(2, 138, 234, 1)" stroke-width="1.5"></path><path d="M1308.63 90.65L1308.63 90.65" stroke="rgba(2, 138, 234, 1)" stroke-width="1.5"></path><path d="M1308.63 90.65L1298.15 229.49" stroke="rgba(2, 138, 234, 1)" stroke-width="1.5"></path><path d="M1298.15 229.49L1298.15 229.49" stroke="rgba(2, 138, 234, 1)" stroke-width="1.5"></path><path d="M1298.15 229.49L1423.51 212.83" stroke="rgba(2, 138, 234, 1)" stroke-width="1.5"></path><path d="M1298.15 229.49L1253.62 395.01" stroke="rgba(2, 138, 234, 1)" stroke-width="1.5"></path><path d="M1298.15 229.49L1117.64 206.53" stroke="rgba(2, 138, 234, 1)" stroke-width="1.5"></path><path d="M1298.15 229.49L1413.45 389.39" stroke="rgba(2, 138, 234, 1)" stroke-width="1.5"></path><path d="M1253.62 395.01L1253.62 395.01" stroke="rgba(2, 138, 234, 1)" stroke-width="1.5"></path><path d="M1253.62 395.01L1295.62 523.9" stroke="rgba(2, 138, 234, 1)" stroke-width="1.5"></path><path d="M1253.62 395.01L1413.45 389.39" stroke="rgba(2, 138, 234, 1)" stroke-width="1.5"></path><path d="M1295.62 523.9L1295.62 523.9" stroke="rgba(2, 138, 234, 1)" stroke-width="1.5"></path><path d="M1295.62 523.9L1391.57 539.27" stroke="rgba(2, 138, 234, 1)" stroke-width="1.5"></path><path d="M1295.62 523.9L1256.59 649.23" stroke="rgba(2, 138, 234, 1)" stroke-width="1.5"></path><path d="M1256.59 649.23L1256.59 649.23" stroke="rgba(2, 138, 234, 1)" stroke-width="1.5"></path><path d="M1401.12 -110.67L1401.12 -110.67" stroke="rgba(2, 138, 234, 1)" stroke-width="1.5"></path><path d="M1401.12 -110.67L1556.71 -62.66" stroke="rgba(2, 138, 234, 1)" stroke-width="1.5"></path><path d="M1401.12 -110.67L1238.63 -38.44" stroke="rgba(2, 138, 234, 1)" stroke-width="1.5"></path><path d="M1401.12 -110.67L1308.63 90.65" stroke="rgba(2, 138, 234, 1)" stroke-width="1.5"></path><path d="M1423.51 212.83L1423.51 212.83" stroke="rgba(2, 138, 234, 1)" stroke-width="1.5"></path><path d="M1423.51 212.83L1577.31 213.77" stroke="rgba(2, 138, 234, 1)" stroke-width="1.5"></path><path d="M1413.45 389.39L1413.45 389.39" stroke="rgba(2, 138, 234, 1)" stroke-width="1.5"></path><path d="M1413.45 389.39L1391.57 539.27" stroke="rgba(2, 138, 234, 1)" stroke-width="1.5"></path><path d="M1413.45 389.39L1423.51 212.83" stroke="rgba(2, 138, 234, 1)" stroke-width="1.5"></path><path d="M1391.57 539.27L1391.57 539.27" stroke="rgba(2, 138, 234, 1)" stroke-width="1.5"></path><path d="M1391.57 539.27L1420.06 687.95" stroke="rgba(2, 138, 234, 1)" stroke-width="1.5"></path><path d="M1391.57 539.27L1256.59 649.23" stroke="rgba(2, 138, 234, 1)" stroke-width="1.5"></path><path d="M1391.57 539.27L1564.91 505.21" stroke="rgba(2, 138, 234, 1)" stroke-width="1.5"></path><path d="M1420.06 687.95L1420.06 687.95" stroke="rgba(2, 138, 234, 1)" stroke-width="1.5"></path><path d="M1420.06 687.95L1558.6 675.49" stroke="rgba(2, 138, 234, 1)" stroke-width="1.5"></path><path d="M1556.71 -62.66L1556.71 -62.66" stroke="rgba(2, 138, 234, 1)" stroke-width="1.5"></path><path d="M1556.71 -62.66L1582.98 95.19" stroke="rgba(2, 138, 234, 1)" stroke-width="1.5"></path><path d="M1556.71 -62.66L1577.31 213.77" stroke="rgba(2, 138, 234, 1)" stroke-width="1.5"></path><path d="M1556.71 -62.66L1308.63 90.65" stroke="rgba(2, 138, 234, 1)" stroke-width="1.5"></path><path d="M1582.98 95.19L1582.98 95.19" stroke="rgba(2, 138, 234, 1)" stroke-width="1.5"></path><path d="M1582.98 95.19L1577.31 213.77" stroke="rgba(2, 138, 234, 1)" stroke-width="1.5"></path><path d="M1582.98 95.19L1423.51 212.83" stroke="rgba(2, 138, 234, 1)" stroke-width="1.5"></path><path d="M1582.98 95.19L1308.63 90.65" stroke="rgba(2, 138, 234, 1)" stroke-width="1.5"></path><path d="M1582.98 95.19L1401.12 -110.67" stroke="rgba(2, 138, 234, 1)" stroke-width="1.5"></path><path d="M1582.98 95.19L1298.15 229.49" stroke="rgba(2, 138, 234, 1)" stroke-width="1.5"></path><path d="M1577.31 213.77L1577.31 213.77" stroke="rgba(2, 138, 234, 1)" stroke-width="1.5"></path><path d="M1564.91 505.21L1564.91 505.21" stroke="rgba(2, 138, 234, 1)" stroke-width="1.5"></path><path d="M1564.91 505.21L1558.6 675.49" stroke="rgba(2, 138, 234, 1)" stroke-width="1.5"></path><path d="M1558.6 675.49L1558.6 675.49" stroke="rgba(2, 138, 234, 1)" stroke-width="1.5"></path><path d="M1558.6 675.49L1391.57 539.27" stroke="rgba(2, 138, 234, 1)" stroke-width="1.5"></path><path d="M1558.6 675.49L1256.59 649.23" stroke="rgba(2, 138, 234, 1)" stroke-width="1.5"></path><path d="M1558.6 675.49L1295.62 523.9" stroke="rgba(2, 138, 234, 1)" stroke-width="1.5"></path><path d="M1558.6 675.49L1413.45 389.39" stroke="rgba(2, 138, 234, 1)" stroke-width="1.5"></path><circle r="5" cx="-76.97" cy="378.48" fill="rgba(2, 138, 234, 1)"></circle><circle r="5" cx="-81.36" cy="528.83" fill="rgba(2, 138, 234, 1)"></circle><circle r="5" cx="-108.26" cy="686.91" fill="rgba(2, 138, 234, 1)"></circle><circle r="5" cx="37.85" cy="365.07" fill="rgba(2, 138, 234, 1)"></circle><circle r="5" cx="74.43" cy="527.29" fill="rgba(2, 138, 234, 1)"></circle><circle r="5" cx="61.33" cy="677.95" fill="rgba(2, 138, 234, 1)"></circle><circle r="5" cx="194.55" cy="403.01" fill="rgba(2, 138, 234, 1)"></circle><circle r="5" cx="223.96" cy="539.31" fill="rgba(2, 138, 234, 1)"></circle><circle r="5" cx="255.2" cy="691.27" fill="rgba(2, 138, 234, 1)"></circle><circle r="5" cx="362.99" cy="342.75" fill="rgba(2, 138, 234, 1)"></circle><circle r="5" cx="371.92" cy="562.32" fill="rgba(2, 138, 234, 1)"></circle><circle r="5" cx="407.87" cy="688" fill="rgba(2, 138, 234, 1)"></circle><circle r="5" cx="516.53" cy="354.04" fill="rgba(2, 138, 234, 1)"></circle><circle r="5" cx="500.58" cy="515.12" fill="rgba(2, 138, 234, 1)"></circle><circle r="5" cx="545.22" cy="707.78" fill="rgba(2, 138, 234, 1)"></circle><circle r="5" cx="693.14" cy="245.67" fill="rgba(2, 138, 234, 1)"></circle><circle r="5" cx="679.58" cy="344.58" fill="rgba(2, 138, 234, 1)"></circle><circle r="5" cx="641.68" cy="559.91" fill="rgba(2, 138, 234, 1)"></circle><circle r="5" cx="681.07" cy="651.18" fill="rgba(2, 138, 234, 1)"></circle><circle r="5" cx="845.74" cy="238.05" fill="rgba(2, 138, 234, 1)"></circle><circle r="5" cx="807.93" cy="369.02" fill="rgba(2, 138, 234, 1)"></circle><circle r="5" cx="804.12" cy="550.6" fill="rgba(2, 138, 234, 1)"></circle><circle r="5" cx="808" cy="644.91" fill="rgba(2, 138, 234, 1)"></circle><circle r="5" cx="988.04" cy="80.69" fill="rgba(2, 138, 234, 1)"></circle><circle r="5" cx="1002.87" cy="215.47" fill="rgba(2, 138, 234, 1)"></circle><circle r="5" cx="998.67" cy="407.91" fill="rgba(2, 138, 234, 1)"></circle><circle r="5" cx="995.05" cy="505.09" fill="rgba(2, 138, 234, 1)"></circle><circle r="5" cx="955.07" cy="703.79" fill="rgba(2, 138, 234, 1)"></circle><circle r="5" cx="1108.25" cy="-105.6" fill="rgba(2, 138, 234, 1)"></circle><circle r="5" cx="1149.12" cy="86.53" fill="rgba(2, 138, 234, 1)"></circle><circle r="5" cx="1117.64" cy="206.53" fill="rgba(2, 138, 234, 1)"></circle><circle r="5" cx="1152.59" cy="639.09" fill="rgba(2, 138, 234, 1)"></circle><circle r="5" cx="1238.63" cy="-38.44" fill="rgba(2, 138, 234, 1)"></circle><circle r="5" cx="1308.63" cy="90.65" fill="rgba(2, 138, 234, 1)"></circle><circle r="5" cx="1298.15" cy="229.49" fill="rgba(2, 138, 234, 1)"></circle><circle r="5" cx="1253.62" cy="395.01" fill="rgba(2, 138, 234, 1)"></circle><circle r="5" cx="1295.62" cy="523.9" fill="rgba(2, 138, 234, 1)"></circle><circle r="5" cx="1256.59" cy="649.23" fill="rgba(2, 138, 234, 1)"></circle><circle r="5" cx="1401.12" cy="-110.67" fill="rgba(2, 138, 234, 1)"></circle><circle r="5" cx="1423.51" cy="212.83" fill="rgba(2, 138, 234, 1)"></circle><circle r="5" cx="1413.45" cy="389.39" fill="rgba(2, 138, 234, 1)"></circle><circle r="5" cx="1391.57" cy="539.27" fill="rgba(2, 138, 234, 1)"></circle><circle r="5" cx="1420.06" cy="687.95" fill="rgba(2, 138, 234, 1)"></circle><circle r="5" cx="1556.71" cy="-62.66" fill="rgba(2, 138, 234, 1)"></circle><circle r="5" cx="1582.98" cy="95.19" fill="rgba(2, 138, 234, 1)"></circle><circle r="5" cx="1577.31" cy="213.77" fill="rgba(2, 138, 234, 1)"></circle><circle r="5" cx="1564.91" cy="505.21" fill="rgba(2, 138, 234, 1)"></circle><circle r="5" cx="1558.6" cy="675.49" fill="rgba(2, 138, 234, 1)"></circle><path d="M-58.56 682.27L-58.56 682.27" stroke="hsl(176.60000000000002, 84.5%, 52.5%)" stroke-width="1.5"></path><path d="M-58.56 682.27L111.25 699.77" stroke="hsl(176.60000000000002, 84.5%, 52.5%)" stroke-width="1.5"></path><path d="M-58.56 682.27L-48.62 508.75" stroke="hsl(176.60000000000002, 84.5%, 52.5%)" stroke-width="1.5"></path><path d="M-58.56 682.27L64.17 544.68" stroke="hsl(176.60000000000002, 84.5%, 52.5%)" stroke-width="1.5"></path><path d="M-58.56 682.27L222.04 678.43" stroke="hsl(176.60000000000002, 84.5%, 52.5%)" stroke-width="1.5"></path><path d="M111.25 699.77L111.25 699.77" stroke="hsl(176.60000000000002, 84.5%, 52.5%)" stroke-width="1.5"></path><path d="M111.25 699.77L222.04 678.43" stroke="hsl(176.60000000000002, 84.5%, 52.5%)" stroke-width="1.5"></path><path d="M111.25 699.77L64.17 544.68" stroke="hsl(176.60000000000002, 84.5%, 52.5%)" stroke-width="1.5"></path><path d="M829.18 694.9L829.18 694.9" stroke="hsl(176.60000000000002, 84.5%, 52.5%)" stroke-width="1.5"></path><path d="M829.18 694.9L941.35 706.77" stroke="hsl(176.60000000000002, 84.5%, 52.5%)" stroke-width="1.5"></path><path d="M829.18 694.9L668.86 668.34" stroke="hsl(176.60000000000002, 84.5%, 52.5%)" stroke-width="1.5"></path><path d="M829.18 694.9L644.6 514.76" stroke="hsl(176.60000000000002, 84.5%, 52.5%)" stroke-width="1.5"></path><path d="M829.18 694.9L856.72 381.31" stroke="hsl(176.60000000000002, 84.5%, 52.5%)" stroke-width="1.5"></path><path d="M949.39 399.9L949.39 399.9" stroke="hsl(176.60000000000002, 84.5%, 52.5%)" stroke-width="1.5"></path><path d="M949.39 399.9L856.72 381.31" stroke="hsl(176.60000000000002, 84.5%, 52.5%)" stroke-width="1.5"></path><path d="M949.39 399.9L973.15 251.9" stroke="hsl(176.60000000000002, 84.5%, 52.5%)" stroke-width="1.5"></path><path d="M949.39 399.9L1149.55 367.09" stroke="hsl(176.60000000000002, 84.5%, 52.5%)" stroke-width="1.5"></path><path d="M949.39 399.9L1125.76 561.33" stroke="hsl(176.60000000000002, 84.5%, 52.5%)" stroke-width="1.5"></path><path d="M941.35 706.77L941.35 706.77" stroke="hsl(176.60000000000002, 84.5%, 52.5%)" stroke-width="1.5"></path><path d="M941.35 706.77L1160.93 701.61" stroke="hsl(176.60000000000002, 84.5%, 52.5%)" stroke-width="1.5"></path><path d="M941.35 706.77L1125.76 561.33" stroke="hsl(176.60000000000002, 84.5%, 52.5%)" stroke-width="1.5"></path><path d="M941.35 706.77L668.86 668.34" stroke="hsl(176.60000000000002, 84.5%, 52.5%)" stroke-width="1.5"></path><path d="M941.35 706.77L949.39 399.9" stroke="hsl(176.60000000000002, 84.5%, 52.5%)" stroke-width="1.5"></path><path d="M1149.55 367.09L1149.55 367.09" stroke="hsl(176.60000000000002, 84.5%, 52.5%)" stroke-width="1.5"></path><path d="M1149.55 367.09L1293.53 356.48" stroke="hsl(176.60000000000002, 84.5%, 52.5%)" stroke-width="1.5"></path><path d="M1149.55 367.09L1127.18 214.8" stroke="hsl(176.60000000000002, 84.5%, 52.5%)" stroke-width="1.5"></path><path d="M1149.55 367.09L1254.26 507.7" stroke="hsl(176.60000000000002, 84.5%, 52.5%)" stroke-width="1.5"></path><path d="M1149.55 367.09L1303.59 247.56" stroke="hsl(176.60000000000002, 84.5%, 52.5%)" stroke-width="1.5"></path><path d="M1149.55 367.09L1125.76 561.33" stroke="hsl(176.60000000000002, 84.5%, 52.5%)" stroke-width="1.5"></path><path d="M1125.76 561.33L1125.76 561.33" stroke="hsl(176.60000000000002, 84.5%, 52.5%)" stroke-width="1.5"></path><path d="M1125.76 561.33L1254.26 507.7" stroke="hsl(176.60000000000002, 84.5%, 52.5%)" stroke-width="1.5"></path><path d="M1125.76 561.33L1160.93 701.61" stroke="hsl(176.60000000000002, 84.5%, 52.5%)" stroke-width="1.5"></path><path d="M1125.76 561.33L1279.74 676.38" stroke="hsl(176.60000000000002, 84.5%, 52.5%)" stroke-width="1.5"></path><path d="M1293.53 356.48L1293.53 356.48" stroke="hsl(176.60000000000002, 84.5%, 52.5%)" stroke-width="1.5"></path><path d="M1293.53 356.48L1394.29 374.99" stroke="hsl(176.60000000000002, 84.5%, 52.5%)" stroke-width="1.5"></path><path d="M1442.92 48.78L1442.92 48.78" stroke="hsl(176.60000000000002, 84.5%, 52.5%)" stroke-width="1.5"></path><path d="M1442.92 48.78L1435.9 -40.7" stroke="hsl(176.60000000000002, 84.5%, 52.5%)" stroke-width="1.5"></path><path d="M1442.92 48.78L1537.66 56.92" stroke="hsl(176.60000000000002, 84.5%, 52.5%)" stroke-width="1.5"></path><path d="M1442.92 48.78L1260.3 75.45" stroke="hsl(176.60000000000002, 84.5%, 52.5%)" stroke-width="1.5"></path><path d="M1442.92 48.78L1304.63 -79.45" stroke="hsl(176.60000000000002, 84.5%, 52.5%)" stroke-width="1.5"></path><path d="M1442.92 48.78L1590 -79.43" stroke="hsl(176.60000000000002, 84.5%, 52.5%)" stroke-width="1.5"></path><path d="M1427.74 673.88L1427.74 673.88" stroke="hsl(176.60000000000002, 84.5%, 52.5%)" stroke-width="1.5"></path><path d="M1427.74 673.88L1551.36 659.76" stroke="hsl(176.60000000000002, 84.5%, 52.5%)" stroke-width="1.5"></path><path d="M1427.74 673.88L1390.09 551.36" stroke="hsl(176.60000000000002, 84.5%, 52.5%)" stroke-width="1.5"></path><path d="M1427.74 673.88L1279.74 676.38" stroke="hsl(176.60000000000002, 84.5%, 52.5%)" stroke-width="1.5"></path><path d="M1427.74 673.88L1542.15 532.83" stroke="hsl(176.60000000000002, 84.5%, 52.5%)" stroke-width="1.5"></path><path d="M1427.74 673.88L1254.26 507.7" stroke="hsl(176.60000000000002, 84.5%, 52.5%)" stroke-width="1.5"></path><path d="M1577.8 235.32L1577.8 235.32" stroke="hsl(176.60000000000002, 84.5%, 52.5%)" stroke-width="1.5"></path><path d="M1577.8 235.32L1432.92 257.69" stroke="hsl(176.60000000000002, 84.5%, 52.5%)" stroke-width="1.5"></path><path d="M1577.8 235.32L1581.47 388.51" stroke="hsl(176.60000000000002, 84.5%, 52.5%)" stroke-width="1.5"></path><path d="M1577.8 235.32L1537.66 56.92" stroke="hsl(176.60000000000002, 84.5%, 52.5%)" stroke-width="1.5"></path><path d="M1577.8 235.32L1442.92 48.78" stroke="hsl(176.60000000000002, 84.5%, 52.5%)" stroke-width="1.5"></path><path d="M1577.8 235.32L1394.29 374.99" stroke="hsl(176.60000000000002, 84.5%, 52.5%)" stroke-width="1.5"></path><path d="M1577.8 235.32L1303.59 247.56" stroke="hsl(176.60000000000002, 84.5%, 52.5%)" stroke-width="1.5"></path><path d="M-48.62 508.75L-48.62 508.75" stroke="hsl(176.60000000000002, 84.5%, 52.5%)" stroke-width="1.5"></path><path d="M-48.62 508.75L64.17 544.68" stroke="hsl(176.60000000000002, 84.5%, 52.5%)" stroke-width="1.5"></path><path d="M-48.62 508.75L111.25 699.77" stroke="hsl(176.60000000000002, 84.5%, 52.5%)" stroke-width="1.5"></path><path d="M-48.62 508.75L238.38 514.66" stroke="hsl(176.60000000000002, 84.5%, 52.5%)" stroke-width="1.5"></path><path d="M-48.62 508.75L222.04 678.43" stroke="hsl(176.60000000000002, 84.5%, 52.5%)" stroke-width="1.5"></path><path d="M-48.62 508.75L401.87 516.59" stroke="hsl(176.60000000000002, 84.5%, 52.5%)" stroke-width="1.5"></path><path d="M64.17 544.68L64.17 544.68" stroke="hsl(176.60000000000002, 84.5%, 52.5%)" stroke-width="1.5"></path><path d="M238.38 514.66L238.38 514.66" stroke="hsl(176.60000000000002, 84.5%, 52.5%)" stroke-width="1.5"></path><path d="M238.38 514.66L401.87 516.59" stroke="hsl(176.60000000000002, 84.5%, 52.5%)" stroke-width="1.5"></path><path d="M238.38 514.66L222.04 678.43" stroke="hsl(176.60000000000002, 84.5%, 52.5%)" stroke-width="1.5"></path><path d="M238.38 514.66L64.17 544.68" stroke="hsl(176.60000000000002, 84.5%, 52.5%)" stroke-width="1.5"></path><path d="M222.04 678.43L222.04 678.43" stroke="hsl(176.60000000000002, 84.5%, 52.5%)" stroke-width="1.5"></path><path d="M222.04 678.43L402.4 643.56" stroke="hsl(176.60000000000002, 84.5%, 52.5%)" stroke-width="1.5"></path><path d="M401.87 516.59L401.87 516.59" stroke="hsl(176.60000000000002, 84.5%, 52.5%)" stroke-width="1.5"></path><path d="M401.87 516.59L518.82 545.55" stroke="hsl(176.60000000000002, 84.5%, 52.5%)" stroke-width="1.5"></path><path d="M401.87 516.59L402.4 643.56" stroke="hsl(176.60000000000002, 84.5%, 52.5%)" stroke-width="1.5"></path><path d="M401.87 516.59L499.54 677.5" stroke="hsl(176.60000000000002, 84.5%, 52.5%)" stroke-width="1.5"></path><path d="M401.87 516.59L222.04 678.43" stroke="hsl(176.60000000000002, 84.5%, 52.5%)" stroke-width="1.5"></path><path d="M401.87 516.59L644.6 514.76" stroke="hsl(176.60000000000002, 84.5%, 52.5%)" stroke-width="1.5"></path><path d="M402.4 643.56L402.4 643.56" stroke="hsl(176.60000000000002, 84.5%, 52.5%)" stroke-width="1.5"></path><path d="M402.4 643.56L499.54 677.5" stroke="hsl(176.60000000000002, 84.5%, 52.5%)" stroke-width="1.5"></path><path d="M402.4 643.56L518.82 545.55" stroke="hsl(176.60000000000002, 84.5%, 52.5%)" stroke-width="1.5"></path><path d="M402.4 643.56L238.38 514.66" stroke="hsl(176.60000000000002, 84.5%, 52.5%)" stroke-width="1.5"></path><path d="M518.82 545.55L518.82 545.55" stroke="hsl(176.60000000000002, 84.5%, 52.5%)" stroke-width="1.5"></path><path d="M518.82 545.55L644.6 514.76" stroke="hsl(176.60000000000002, 84.5%, 52.5%)" stroke-width="1.5"></path><path d="M518.82 545.55L499.54 677.5" stroke="hsl(176.60000000000002, 84.5%, 52.5%)" stroke-width="1.5"></path><path d="M499.54 677.5L499.54 677.5" stroke="hsl(176.60000000000002, 84.5%, 52.5%)" stroke-width="1.5"></path><path d="M639.64 376.7L639.64 376.7" stroke="hsl(176.60000000000002, 84.5%, 52.5%)" stroke-width="1.5"></path><path d="M639.64 376.7L644.6 514.76" stroke="hsl(176.60000000000002, 84.5%, 52.5%)" stroke-width="1.5"></path><path d="M639.64 376.7L518.82 545.55" stroke="hsl(176.60000000000002, 84.5%, 52.5%)" stroke-width="1.5"></path><path d="M639.64 376.7L856.72 381.31" stroke="hsl(176.60000000000002, 84.5%, 52.5%)" stroke-width="1.5"></path><path d="M639.64 376.7L401.87 516.59" stroke="hsl(176.60000000000002, 84.5%, 52.5%)" stroke-width="1.5"></path><path d="M639.64 376.7L668.86 668.34" stroke="hsl(176.60000000000002, 84.5%, 52.5%)" stroke-width="1.5"></path><path d="M644.6 514.76L644.6 514.76" stroke="hsl(176.60000000000002, 84.5%, 52.5%)" stroke-width="1.5"></path><path d="M668.86 668.34L668.86 668.34" stroke="hsl(176.60000000000002, 84.5%, 52.5%)" stroke-width="1.5"></path><path d="M668.86 668.34L644.6 514.76" stroke="hsl(176.60000000000002, 84.5%, 52.5%)" stroke-width="1.5"></path><path d="M668.86 668.34L499.54 677.5" stroke="hsl(176.60000000000002, 84.5%, 52.5%)" stroke-width="1.5"></path><path d="M668.86 668.34L518.82 545.55" stroke="hsl(176.60000000000002, 84.5%, 52.5%)" stroke-width="1.5"></path><path d="M668.86 668.34L402.4 643.56" stroke="hsl(176.60000000000002, 84.5%, 52.5%)" stroke-width="1.5"></path><path d="M856.72 381.31L856.72 381.31" stroke="hsl(176.60000000000002, 84.5%, 52.5%)" stroke-width="1.5"></path><path d="M856.72 381.31L973.15 251.9" stroke="hsl(176.60000000000002, 84.5%, 52.5%)" stroke-width="1.5"></path><path d="M856.72 381.31L644.6 514.76" stroke="hsl(176.60000000000002, 84.5%, 52.5%)" stroke-width="1.5"></path><path d="M856.72 381.31L1149.55 367.09" stroke="hsl(176.60000000000002, 84.5%, 52.5%)" stroke-width="1.5"></path><path d="M973.15 251.9L973.15 251.9" stroke="hsl(176.60000000000002, 84.5%, 52.5%)" stroke-width="1.5"></path><path d="M973.15 251.9L1127.18 214.8" stroke="hsl(176.60000000000002, 84.5%, 52.5%)" stroke-width="1.5"></path><path d="M973.15 251.9L1149.55 367.09" stroke="hsl(176.60000000000002, 84.5%, 52.5%)" stroke-width="1.5"></path><path d="M973.15 251.9L1303.59 247.56" stroke="hsl(176.60000000000002, 84.5%, 52.5%)" stroke-width="1.5"></path><path d="M1153.71 -91.94L1153.71 -91.94" stroke="hsl(176.60000000000002, 84.5%, 52.5%)" stroke-width="1.5"></path><path d="M1153.71 -91.94L1304.63 -79.45" stroke="hsl(176.60000000000002, 84.5%, 52.5%)" stroke-width="1.5"></path><path d="M1153.71 -91.94L1260.3 75.45" stroke="hsl(176.60000000000002, 84.5%, 52.5%)" stroke-width="1.5"></path><path d="M1153.71 -91.94L1435.9 -40.7" stroke="hsl(176.60000000000002, 84.5%, 52.5%)" stroke-width="1.5"></path><path d="M1127.18 214.8L1127.18 214.8" stroke="hsl(176.60000000000002, 84.5%, 52.5%)" stroke-width="1.5"></path><path d="M1127.18 214.8L1303.59 247.56" stroke="hsl(176.60000000000002, 84.5%, 52.5%)" stroke-width="1.5"></path><path d="M1127.18 214.8L1260.3 75.45" stroke="hsl(176.60000000000002, 84.5%, 52.5%)" stroke-width="1.5"></path><path d="M1127.18 214.8L1293.53 356.48" stroke="hsl(176.60000000000002, 84.5%, 52.5%)" stroke-width="1.5"></path><path d="M1127.18 214.8L949.39 399.9" stroke="hsl(176.60000000000002, 84.5%, 52.5%)" stroke-width="1.5"></path><path d="M1160.93 701.61L1160.93 701.61" stroke="hsl(176.60000000000002, 84.5%, 52.5%)" stroke-width="1.5"></path><path d="M1160.93 701.61L1279.74 676.38" stroke="hsl(176.60000000000002, 84.5%, 52.5%)" stroke-width="1.5"></path><path d="M1304.63 -79.45L1304.63 -79.45" stroke="hsl(176.60000000000002, 84.5%, 52.5%)" stroke-width="1.5"></path><path d="M1304.63 -79.45L1435.9 -40.7" stroke="hsl(176.60000000000002, 84.5%, 52.5%)" stroke-width="1.5"></path><path d="M1260.3 75.45L1260.3 75.45" stroke="hsl(176.60000000000002, 84.5%, 52.5%)" stroke-width="1.5"></path><path d="M1260.3 75.45L1304.63 -79.45" stroke="hsl(176.60000000000002, 84.5%, 52.5%)" stroke-width="1.5"></path><path d="M1260.3 75.45L1303.59 247.56" stroke="hsl(176.60000000000002, 84.5%, 52.5%)" stroke-width="1.5"></path><path d="M1303.59 247.56L1303.59 247.56" stroke="hsl(176.60000000000002, 84.5%, 52.5%)" stroke-width="1.5"></path><path d="M1303.59 247.56L1293.53 356.48" stroke="hsl(176.60000000000002, 84.5%, 52.5%)" stroke-width="1.5"></path><path d="M1303.59 247.56L1432.92 257.69" stroke="hsl(176.60000000000002, 84.5%, 52.5%)" stroke-width="1.5"></path><path d="M1303.59 247.56L1394.29 374.99" stroke="hsl(176.60000000000002, 84.5%, 52.5%)" stroke-width="1.5"></path><path d="M1254.26 507.7L1254.26 507.7" stroke="hsl(176.60000000000002, 84.5%, 52.5%)" stroke-width="1.5"></path><path d="M1254.26 507.7L1390.09 551.36" stroke="hsl(176.60000000000002, 84.5%, 52.5%)" stroke-width="1.5"></path><path d="M1254.26 507.7L1293.53 356.48" stroke="hsl(176.60000000000002, 84.5%, 52.5%)" stroke-width="1.5"></path><path d="M1254.26 507.7L1279.74 676.38" stroke="hsl(176.60000000000002, 84.5%, 52.5%)" stroke-width="1.5"></path><path d="M1279.74 676.38L1279.74 676.38" stroke="hsl(176.60000000000002, 84.5%, 52.5%)" stroke-width="1.5"></path><path d="M1279.74 676.38L1390.09 551.36" stroke="hsl(176.60000000000002, 84.5%, 52.5%)" stroke-width="1.5"></path><path d="M1435.9 -40.7L1435.9 -40.7" stroke="hsl(176.60000000000002, 84.5%, 52.5%)" stroke-width="1.5"></path><path d="M1435.9 -40.7L1537.66 56.92" stroke="hsl(176.60000000000002, 84.5%, 52.5%)" stroke-width="1.5"></path><path d="M1435.9 -40.7L1590 -79.43" stroke="hsl(176.60000000000002, 84.5%, 52.5%)" stroke-width="1.5"></path><path d="M1432.92 257.69L1432.92 257.69" stroke="hsl(176.60000000000002, 84.5%, 52.5%)" stroke-width="1.5"></path><path d="M1432.92 257.69L1394.29 374.99" stroke="hsl(176.60000000000002, 84.5%, 52.5%)" stroke-width="1.5"></path><path d="M1432.92 257.69L1293.53 356.48" stroke="hsl(176.60000000000002, 84.5%, 52.5%)" stroke-width="1.5"></path><path d="M1432.92 257.69L1581.47 388.51" stroke="hsl(176.60000000000002, 84.5%, 52.5%)" stroke-width="1.5"></path><path d="M1432.92 257.69L1442.92 48.78" stroke="hsl(176.60000000000002, 84.5%, 52.5%)" stroke-width="1.5"></path><path d="M1394.29 374.99L1394.29 374.99" stroke="hsl(176.60000000000002, 84.5%, 52.5%)" stroke-width="1.5"></path><path d="M1390.09 551.36L1390.09 551.36" stroke="hsl(176.60000000000002, 84.5%, 52.5%)" stroke-width="1.5"></path><path d="M1390.09 551.36L1542.15 532.83" stroke="hsl(176.60000000000002, 84.5%, 52.5%)" stroke-width="1.5"></path><path d="M1590 -79.43L1590 -79.43" stroke="hsl(176.60000000000002, 84.5%, 52.5%)" stroke-width="1.5"></path><path d="M1590 -79.43L1537.66 56.92" stroke="hsl(176.60000000000002, 84.5%, 52.5%)" stroke-width="1.5"></path><path d="M1590 -79.43L1304.63 -79.45" stroke="hsl(176.60000000000002, 84.5%, 52.5%)" stroke-width="1.5"></path><path d="M1590 -79.43L1577.8 235.32" stroke="hsl(176.60000000000002, 84.5%, 52.5%)" stroke-width="1.5"></path><path d="M1590 -79.43L1260.3 75.45" stroke="hsl(176.60000000000002, 84.5%, 52.5%)" stroke-width="1.5"></path><path d="M1537.66 56.92L1537.66 56.92" stroke="hsl(176.60000000000002, 84.5%, 52.5%)" stroke-width="1.5"></path><path d="M1581.47 388.51L1581.47 388.51" stroke="hsl(176.60000000000002, 84.5%, 52.5%)" stroke-width="1.5"></path><path d="M1581.47 388.51L1542.15 532.83" stroke="hsl(176.60000000000002, 84.5%, 52.5%)" stroke-width="1.5"></path><path d="M1581.47 388.51L1394.29 374.99" stroke="hsl(176.60000000000002, 84.5%, 52.5%)" stroke-width="1.5"></path><path d="M1581.47 388.51L1390.09 551.36" stroke="hsl(176.60000000000002, 84.5%, 52.5%)" stroke-width="1.5"></path><path d="M1542.15 532.83L1542.15 532.83" stroke="hsl(176.60000000000002, 84.5%, 52.5%)" stroke-width="1.5"></path><path d="M1542.15 532.83L1551.36 659.76" stroke="hsl(176.60000000000002, 84.5%, 52.5%)" stroke-width="1.5"></path><path d="M1542.15 532.83L1394.29 374.99" stroke="hsl(176.60000000000002, 84.5%, 52.5%)" stroke-width="1.5"></path><path d="M1542.15 532.83L1254.26 507.7" stroke="hsl(176.60000000000002, 84.5%, 52.5%)" stroke-width="1.5"></path><path d="M1551.36 659.76L1551.36 659.76" stroke="hsl(176.60000000000002, 84.5%, 52.5%)" stroke-width="1.5"></path><path d="M1551.36 659.76L1390.09 551.36" stroke="hsl(176.60000000000002, 84.5%, 52.5%)" stroke-width="1.5"></path><path d="M1551.36 659.76L1279.74 676.38" stroke="hsl(176.60000000000002, 84.5%, 52.5%)" stroke-width="1.5"></path><path d="M1551.36 659.76L1581.47 388.51" stroke="hsl(176.60000000000002, 84.5%, 52.5%)" stroke-width="1.5"></path><path d="M1551.36 659.76L1394.29 374.99" stroke="hsl(176.60000000000002, 84.5%, 52.5%)" stroke-width="1.5"></path><circle r="25" cx="-58.56" cy="682.27" fill="url(#SvgjsRadialGradient1019)"></circle><circle r="25" cx="111.25" cy="699.77" fill="url(#SvgjsRadialGradient1019)"></circle><circle r="25" cx="829.18" cy="694.9" fill="url(#SvgjsRadialGradient1019)"></circle><circle r="25" cx="949.39" cy="399.9" fill="url(#SvgjsRadialGradient1019)"></circle><circle r="25" cx="941.35" cy="706.77" fill="url(#SvgjsRadialGradient1019)"></circle><circle r="25" cx="1149.55" cy="367.09" fill="url(#SvgjsRadialGradient1019)"></circle><circle r="25" cx="1125.76" cy="561.33" fill="url(#SvgjsRadialGradient1019)"></circle><circle r="25" cx="1293.53" cy="356.48" fill="url(#SvgjsRadialGradient1019)"></circle><circle r="25" cx="1442.92" cy="48.78" fill="url(#SvgjsRadialGradient1019)"></circle><circle r="25" cx="1427.74" cy="673.88" fill="url(#SvgjsRadialGradient1019)"></circle><circle r="25" cx="1577.8" cy="235.32" fill="url(#SvgjsRadialGradient1019)"></circle><circle r="5" cx="-48.62" cy="508.75" fill="#88dfda"></circle><circle r="5" cx="64.17" cy="544.68" fill="#88dfda"></circle><circle r="5" cx="238.38" cy="514.66" fill="#88dfda"></circle><circle r="5" cx="222.04" cy="678.43" fill="#88dfda"></circle><circle r="5" cx="401.87" cy="516.59" fill="#88dfda"></circle><circle r="5" cx="402.4" cy="643.56" fill="#88dfda"></circle><circle r="5" cx="518.82" cy="545.55" fill="#88dfda"></circle><circle r="5" cx="499.54" cy="677.5" fill="#88dfda"></circle><circle r="5" cx="639.64" cy="376.7" fill="#88dfda"></circle><circle r="5" cx="644.6" cy="514.76" fill="#88dfda"></circle><circle r="5" cx="668.86" cy="668.34" fill="#88dfda"></circle><circle r="5" cx="856.72" cy="381.31" fill="#88dfda"></circle><circle r="5" cx="973.15" cy="251.9" fill="#88dfda"></circle><circle r="5" cx="1153.71" cy="-91.94" fill="#88dfda"></circle><circle r="5" cx="1127.18" cy="214.8" fill="#88dfda"></circle><circle r="5" cx="1160.93" cy="701.61" fill="#88dfda"></circle><circle r="5" cx="1304.63" cy="-79.45" fill="#88dfda"></circle><circle r="5" cx="1260.3" cy="75.45" fill="#88dfda"></circle><circle r="5" cx="1303.59" cy="247.56" fill="#88dfda"></circle><circle r="5" cx="1254.26" cy="507.7" fill="#88dfda"></circle><circle r="5" cx="1279.74" cy="676.38" fill="#88dfda"></circle><circle r="5" cx="1435.9" cy="-40.7" fill="#88dfda"></circle><circle r="5" cx="1432.92" cy="257.69" fill="#88dfda"></circle><circle r="5" cx="1394.29" cy="374.99" fill="#88dfda"></circle><circle r="5" cx="1390.09" cy="551.36" fill="#88dfda"></circle><circle r="5" cx="1590" cy="-79.43" fill="#88dfda"></circle><circle r="5" cx="1537.66" cy="56.92" fill="#88dfda"></circle><circle r="5" cx="1581.47" cy="388.51" fill="#88dfda"></circle><circle r="5" cx="1542.15" cy="532.83" fill="#88dfda"></circle><circle r="5" cx="1551.36" cy="659.76" fill="#88dfda"></circle></g><defs><mask id="SvgjsMask1018"><rect width="1440" height="560" fill="#ffffff"></rect></mask><radialGradient id="SvgjsRadialGradient1019"><stop stop-color="#ffffff" offset="0.1"></stop><stop stop-color="rgba(16, 190, 180, 1)" offset="0.2"></stop><stop stop-color="rgba(16, 190, 180, 0)" offset="1"></stop></radialGradient></defs></svg>