<?xml version="1.0" encoding="utf-8"?><svg xmlns="http://www.w3.org/2000/svg" xmlns:xlink="http://www.w3.org/1999/xlink" width="1920" height="969" preserveAspectRatio="xMidYMid" viewBox="0 0 1920 969" style="z-index:1;margin-right:-2px;display:block;background-repeat-y:initial;background-repeat-x:initial;background-color:rgb(255, 255, 255);animation-play-state:paused" ><g transform="translate(960,484.5) scale(1,1) translate(-960,-484.5)" style="transform:matrix(1, 0, 0, 1, 0, 0);animation-play-state:paused" ><linearGradient id="lg-0.4150857049395493" x1="0" x2="1" y1="0" y2="0" style="animation-play-state:paused" ><stop stop-color="#ff00ff" offset="0" style="animation-play-state:paused" ></stop>

  
<stop stop-color="#00ffff" offset="1" style="animation-play-state:paused" ></stop></linearGradient>
<path d="M 0 0 L 0 885.338 Q 192 761.713 384 721.557 T 768 711.891 T 1152 554.014 T 1536 488.698 T 1920 377.914 L 1920 0 Z" fill="url(#lg-0.4150857049395493)" opacity="0.4" style="opacity:0.4;animation-play-state:paused" ></path>
<path d="M 0 0 L 0 873.608 Q 192 891.234 384 857.516 T 768 729.025 T 1152 582.65 T 1536 474.225 T 1920 400.256 L 1920 0 Z" fill="url(#lg-0.4150857049395493)" opacity="0.4" style="opacity:0.4;animation-play-state:paused" ></path>
<path d="M 0 0 L 0 904.049 Q 192 841.366 384 805.763 T 768 742.909 T 1152 619.763 T 1536 503.595 T 1920 410.713 L 1920 0 Z" fill="url(#lg-0.4150857049395493)" opacity="0.4" style="opacity:0.4;animation-play-state:paused" ></path>
<path d="M 0 0 L 0 798.904 Q 192 872.256 384 844.125 T 768 684.064 T 1152 530.142 T 1536 469.346 T 1920 435.73 L 1920 0 Z" fill="url(#lg-0.4150857049395493)" opacity="0.4" style="opacity:0.4;animation-play-state:paused" ></path>
<path d="M 0 0 L 0 853.845 Q 192 849.914 384 809.392 T 768 674.522 T 1152 597.72 T 1536 488.481 T 1920 472.025 L 1920 0 Z" fill="url(#lg-0.4150857049395493)" opacity="0.4" style="opacity:0.4;animation-play-state:paused" ></path></g></svg>